<svg xmlns="http://www.w3.org/2000/svg" width="900" height="360" viewBox="0 0 900 360">
<rect width="100%" height="100%" fill="#ffffff"/>
<text x="48" y="28" font-size="18" font-family="Arial" fill="#111827">helpful_harmful_comm</text>
<line x1="48" y1="279.00" x2="852" y2="279.00" stroke="#9ca3af" stroke-width="1"/>
<rect x="61.00" y="143.33" width="41" height="135.67" fill="#2563eb" opacity="0.86"/>
<text x="61.00" y="344" font-size="10" font-family="Arial" transform="rotate(-35 61.00,344)">dala_lite_same_context_v1:help</text>
<rect x="128.00" y="279.00" width="41" height="11.00" fill="#dc2626" opacity="0.86"/>
<text x="128.00" y="344" font-size="10" font-family="Arial" transform="rotate(-35 128.00,344)">dala_lite_same_context_v1:harm</text>
<rect x="195.00" y="48.00" width="41" height="231.00" fill="#2563eb" opacity="0.86"/>
<text x="195.00" y="344" font-size="10" font-family="Arial" transform="rotate(-35 195.00,344)">hotpotqa_split_main:helpful</text>
<rect x="262.00" y="279.00" width="41" height="0.00" fill="#2563eb" opacity="0.86"/>
<text x="262.00" y="344" font-size="10" font-family="Arial" transform="rotate(-35 262.00,344)">hotpotqa_split_main:harmful</text>
<rect x="329.00" y="264.33" width="41" height="14.67" fill="#2563eb" opacity="0.86"/>
<text x="329.00" y="344" font-size="10" font-family="Arial" transform="rotate(-35 329.00,344)">trigger_early_exit_v1:helpful</text>
<rect x="396.00" y="279.00" width="41" height="18.33" fill="#dc2626" opacity="0.86"/>
<text x="396.00" y="344" font-size="10" font-family="Arial" transform="rotate(-35 396.00,344)">trigger_early_exit_v1:harmful</text>
<rect x="463.00" y="213.00" width="41" height="66.00" fill="#2563eb" opacity="0.86"/>
<text x="463.00" y="344" font-size="10" font-family="Arial" transform="rotate(-35 463.00,344)">sparc_v1_smoke:helpful</text>
<rect x="530.00" y="279.00" width="41" height="22.00" fill="#dc2626" opacity="0.86"/>
<text x="530.00" y="344" font-size="10" font-family="Arial" transform="rotate(-35 530.00,344)">sparc_v1_smoke:harmful</text>
<rect x="597.00" y="152.50" width="41" height="126.50" fill="#2563eb" opacity="0.86"/>
<text x="597.00" y="344" font-size="10" font-family="Arial" transform="rotate(-35 597.00,344)">dala_lite_split_context_v1:hel</text>
<rect x="664.00" y="279.00" width="41" height="33.00" fill="#dc2626" opacity="0.86"/>
<text x="664.00" y="344" font-size="10" font-family="Arial" transform="rotate(-35 664.00,344)">dala_lite_split_context_v1:har</text>
<rect x="731.00" y="139.67" width="41" height="139.33" fill="#2563eb" opacity="0.86"/>
<text x="731.00" y="344" font-size="10" font-family="Arial" transform="rotate(-35 731.00,344)">trigger_voc_v2:helpful</text>
<rect x="798.00" y="279.00" width="41" height="0.00" fill="#2563eb" opacity="0.86"/>
<text x="798.00" y="344" font-size="10" font-family="Arial" transform="rotate(-35 798.00,344)">trigger_voc_v2:harmful</text>
</svg>
